<svg width="28" height="24" viewBox="0 0 28 24" fill="none" xmlns="http://www.w3.org/2000/svg">
<path d="M21.5466 7.12C21.8964 7.11853 22.2316 6.97966 22.48 6.73333L23.4266 5.78667C23.5662 5.66714 23.6796 5.52005 23.7596 5.35463C23.8396 5.18921 23.8846 5.00903 23.8917 4.8254C23.8988 4.64178 23.8678 4.45867 23.8008 4.28757C23.7338 4.11647 23.6321 3.96107 23.5022 3.83113C23.3722 3.70119 23.2168 3.59952 23.0457 3.53248C22.8746 3.46545 22.6915 3.43451 22.5079 3.4416C22.3243 3.44869 22.1441 3.49367 21.9787 3.5737C21.8132 3.65373 21.6662 3.76709 21.5466 3.90667L20.6666 4.85333C20.4183 5.10315 20.2789 5.44109 20.2789 5.79333C20.2789 6.14558 20.4183 6.48352 20.6666 6.73333C20.9017 6.96715 21.2154 7.105 21.5466 7.12V7.12ZM14 4C14.3536 4 14.6927 3.85952 14.9428 3.60948C15.1928 3.35943 15.3333 3.02029 15.3333 2.66667V1.33333C15.3333 0.979711 15.1928 0.640573 14.9428 0.390524C14.6927 0.140476 14.3536 0 14 0C13.6463 0 13.3072 0.140476 13.0572 0.390524C12.8071 0.640573 12.6666 0.979711 12.6666 1.33333V2.66667C12.6666 3.02029 12.8071 3.35943 13.0572 3.60948C13.3072 3.85952 13.6463 4 14 4ZM3.33329 12H1.99996C1.64634 12 1.3072 12.1405 1.05715 12.3905C0.807102 12.6406 0.666626 12.9797 0.666626 13.3333C0.666626 13.687 0.807102 14.0261 1.05715 14.2761C1.3072 14.5262 1.64634 14.6667 1.99996 14.6667H3.33329C3.68691 14.6667 4.02605 14.5262 4.2761 14.2761C4.52615 14.0261 4.66663 13.687 4.66663 13.3333C4.66663 12.9797 4.52615 12.6406 4.2761 12.3905C4.02605 12.1405 3.68691 12 3.33329 12ZM5.51996 6.73333C5.76831 6.97966 6.10351 7.11853 6.45329 7.12C6.62877 7.12101 6.80272 7.08738 6.96517 7.02103C7.12762 6.95468 7.27537 6.85691 7.39996 6.73333C7.64829 6.48352 7.78768 6.14558 7.78768 5.79333C7.78768 5.44109 7.64829 5.10315 7.39996 4.85333L6.45329 3.90667C6.19822 3.68823 5.87012 3.57409 5.53455 3.58705C5.19899 3.60001 4.88067 3.73912 4.64321 3.97658C4.40575 4.21404 4.26664 4.53236 4.25368 4.86793C4.24072 5.2035 4.35486 5.5316 4.57329 5.78667L5.51996 6.73333ZM26 12H24.6666C24.313 12 23.9739 12.1405 23.7238 12.3905C23.4738 12.6406 23.3333 12.9797 23.3333 13.3333C23.3333 13.687 23.4738 14.0261 23.7238 14.2761C23.9739 14.5262 24.313 14.6667 24.6666 14.6667H26C26.3536 14.6667 26.6927 14.5262 26.9428 14.2761C27.1928 14.0261 27.3333 13.687 27.3333 13.3333C27.3333 12.9797 27.1928 12.6406 26.9428 12.3905C26.6927 12.1405 26.3536 12 26 12ZM12.6666 21.3333H8.66663C8.313 21.3333 7.97387 21.4738 7.72382 21.7239C7.47377 21.9739 7.33329 22.313 7.33329 22.6667C7.33329 23.0203 7.47377 23.3594 7.72382 23.6095C7.97387 23.8595 8.313 24 8.66663 24H12.6666C13.0202 24 13.3594 23.8595 13.6094 23.6095C13.8595 23.3594 14 23.0203 14 22.6667C14 22.313 13.8595 21.9739 13.6094 21.7239C13.3594 21.4738 13.0202 21.3333 12.6666 21.3333ZM22 16H20.8266C21.1634 15.1514 21.3353 14.2463 21.3333 13.3333C21.3333 11.3884 20.5607 9.52315 19.1854 8.14788C17.8101 6.77262 15.9449 6 14 6C12.055 6 10.1898 6.77262 8.81451 8.14788C7.43924 9.52315 6.66663 11.3884 6.66663 13.3333C6.66459 14.2463 6.83655 15.1514 7.17329 16H5.99996C5.64634 16 5.3072 16.1405 5.05715 16.3905C4.8071 16.6406 4.66663 16.9797 4.66663 17.3333C4.66663 17.687 4.8071 18.0261 5.05715 18.2761C5.3072 18.5262 5.64634 18.6667 5.99996 18.6667H22C22.3536 18.6667 22.6927 18.5262 22.9428 18.2761C23.1928 18.0261 23.3333 17.687 23.3333 17.3333C23.3333 16.9797 23.1928 16.6406 22.9428 16.3905C22.6927 16.1405 22.3536 16 22 16ZM17.8 16H10.2C9.63979 15.2234 9.33674 14.2909 9.33329 13.3333C9.33329 12.0957 9.82496 10.9087 10.7001 10.0335C11.5753 9.15833 12.7623 8.66667 14 8.66667C15.2376 8.66667 16.4246 9.15833 17.2998 10.0335C18.175 10.9087 18.6666 12.0957 18.6666 13.3333C18.6632 14.2909 18.3601 15.2234 17.8 16ZM19.3333 21.3333H18C17.6463 21.3333 17.3072 21.4738 17.0572 21.7239C16.8071 21.9739 16.6666 22.313 16.6666 22.6667C16.6666 23.0203 16.8071 23.3594 17.0572 23.6095C17.3072 23.8595 17.6463 24 18 24H19.3333C19.6869 24 20.0261 23.8595 20.2761 23.6095C20.5262 23.3594 20.6666 23.0203 20.6666 22.6667C20.6666 22.313 20.5262 21.9739 20.2761 21.7239C20.0261 21.4738 19.6869 21.3333 19.3333 21.3333Z" fill="white"/>
</svg>
